<svg width="36" height="36" viewBox="0 0 36 36" fill="none" xmlns="http://www.w3.org/2000/svg">
<path d="M32.625 29.25H3.375C3.07663 29.25 2.79048 29.1315 2.5795 28.9205C2.36853 28.7095 2.25 28.4234 2.25 28.125V9C2.25 8.70163 2.36853 8.41548 2.5795 8.2045C2.79048 7.99353 3.07663 7.875 3.375 7.875H10.6425L12.5662 5.00625C12.6682 4.85149 12.8067 4.72431 12.9696 4.63599C13.1325 4.54767 13.3147 4.50096 13.5 4.5H22.5C22.6853 4.50096 22.8675 4.54767 23.0304 4.63599C23.1933 4.72431 23.3318 4.85149 23.4338 5.00625L25.3575 7.875H32.625C32.9234 7.875 33.2095 7.99353 33.4205 8.2045C33.6315 8.41548 33.75 8.70163 33.75 9V28.125C33.75 28.4234 33.6315 28.7095 33.4205 28.9205C33.2095 29.1315 32.9234 29.25 32.625 29.25ZM4.5 27H31.5V10.125H24.75C24.5647 10.124 24.3825 10.0773 24.2196 9.98901C24.0567 9.90069 23.9182 9.77351 23.8162 9.61875L21.8925 6.75H14.1075L12.1838 9.61875C12.0818 9.77351 11.9433 9.90069 11.7804 9.98901C11.6175 10.0773 11.4353 10.124 11.25 10.125H4.5V27Z" fill="white"/>
<path d="M18 24.75C16.665 24.75 15.3599 24.3541 14.2499 23.6124C13.1399 22.8707 12.2747 21.8165 11.7638 20.5831C11.2529 19.3497 11.1193 17.9925 11.3797 16.6831C11.6402 15.3738 12.283 14.171 13.227 13.227C14.171 12.283 15.3738 11.6402 16.6831 11.3797C17.9925 11.1193 19.3497 11.2529 20.5831 11.7638C21.8165 12.2747 22.8707 13.1399 23.6124 14.2499C24.3541 15.3599 24.75 16.665 24.75 18C24.75 19.7902 24.0388 21.5071 22.773 22.773C21.5071 24.0388 19.7902 24.75 18 24.75ZM18 13.5C17.11 13.5 16.24 13.7639 15.4999 14.2584C14.7599 14.7529 14.1831 15.4557 13.8425 16.2779C13.502 17.1002 13.4128 18.005 13.5865 18.8779C13.7601 19.7508 14.1887 20.5526 14.818 21.182C15.4474 21.8113 16.2492 22.2399 17.1221 22.4135C17.995 22.5872 18.8998 22.4981 19.7221 22.1575C20.5443 21.8169 21.2471 21.2401 21.7416 20.5001C22.2361 19.76 22.5 18.89 22.5 18C22.5 16.8065 22.0259 15.6619 21.182 14.818C20.3381 13.9741 19.1935 13.5 18 13.5Z" fill="white"/>
</svg>
