<svg width="32" height="28" viewBox="0 0 32 28" fill="none" xmlns="http://www.w3.org/2000/svg">
<path d="M32 3.31457C30.8017 3.88613 29.5307 4.26129 28.2292 4.4276C29.5849 3.55279 30.6257 2.1675 31.1159 0.516943C29.8272 1.34032 28.4173 1.92044 26.947 2.23224C25.7494 0.858522 24.0432 0 22.1549 0C18.5291 0 15.5895 3.16492 15.5895 7.06844C15.5895 7.62253 15.6476 8.16195 15.7595 8.67943C10.3032 8.38455 5.46575 5.5705 2.22762 1.29391C1.66262 2.33789 1.33888 3.55225 1.33888 4.84751C1.33888 7.29992 2.498 9.46339 4.2595 10.7311C3.21694 10.6959 2.19731 10.3927 1.28575 9.84682C1.28537 9.87643 1.28537 9.90604 1.28537 9.93579C1.28537 13.3606 3.54837 16.2176 6.55162 16.8669C5.58486 17.15 4.57079 17.1915 3.58687 16.9881C4.42225 19.7963 6.84688 21.8399 9.71963 21.8971C7.47275 23.7929 4.64188 24.923 1.56613 24.923C1.03613 24.923 0.513625 24.8895 0 24.8242C2.90538 26.8298 6.35625 28 10.0638 28C22.1396 28 28.743 17.229 28.743 7.8882C28.743 7.58161 28.7368 7.27678 28.724 6.97369C30.0093 5.97329 31.1186 4.7342 32 3.31457Z" fill="#55ACEE"/>
</svg>
