<svg width="72" height="72" viewBox="0 0 72 72" fill="none" xmlns="http://www.w3.org/2000/svg">
<path d="M36 0C16.125 0 0 16.125 0 36C0 55.875 16.125 72 36 72C55.875 72 72 55.875 72 36C72 16.125 55.875 0 36 0ZM34.875 57C34.1333 57 33.4083 56.7801 32.7916 56.368C32.1749 55.956 31.6943 55.3703 31.4105 54.6851C31.1266 53.9998 31.0524 53.2458 31.1971 52.5184C31.3417 51.791 31.6989 51.1228 32.2234 50.5983C32.7478 50.0739 33.416 49.7168 34.1434 49.5721C34.8708 49.4274 35.6248 49.5016 36.3101 49.7854C36.9953 50.0693 37.581 50.5499 37.993 51.1666C38.4051 51.7833 38.625 52.5083 38.625 53.25C38.625 54.2446 38.2299 55.1984 37.5267 55.9017C36.8234 56.6049 35.8696 57 34.875 57ZM41.145 37.875C38.1056 39.915 37.6875 41.7844 37.6875 43.5C37.6875 44.1962 37.4109 44.8639 36.9187 45.3562C36.4264 45.8484 35.7587 46.125 35.0625 46.125C34.3663 46.125 33.6986 45.8484 33.2063 45.3562C32.7141 44.8639 32.4375 44.1962 32.4375 43.5C32.4375 39.3919 34.3275 36.1256 38.2163 33.5138C41.8313 31.0875 43.875 29.55 43.875 26.1694C43.875 23.8706 42.5625 22.125 39.8456 20.8331C39.2063 20.5294 37.7831 20.2331 36.0319 20.2537C33.8344 20.2819 32.1281 20.8069 30.8137 21.8644C28.335 23.8594 28.125 26.0306 28.125 26.0625C28.1084 26.4072 28.024 26.7453 27.8767 27.0574C27.7295 27.3695 27.5222 27.6496 27.2667 27.8816C27.0112 28.1136 26.7125 28.293 26.3876 28.4096C26.0628 28.5261 25.7182 28.5776 25.3734 28.5609C25.0287 28.5443 24.6906 28.46 24.3785 28.3127C24.0664 28.1654 23.7864 27.9581 23.5544 27.7026C23.3224 27.4471 23.1429 27.1484 23.0264 26.8236C22.9098 26.4987 22.8584 26.1541 22.875 25.8094C22.8956 25.3537 23.2125 21.2494 27.5194 17.7844C29.7525 15.9881 32.5931 15.0544 35.9569 15.0131C38.3381 14.985 40.575 15.3881 42.0919 16.1044C46.6312 18.2512 49.125 21.8306 49.125 26.1694C49.125 32.5125 44.8856 35.3606 41.145 37.875Z" fill="#707BE2"/>
</svg>
