<svg width="33" height="33" viewBox="0 0 33 33" fill="none" xmlns="http://www.w3.org/2000/svg">
<path d="M28.1227 4.6951C25.0775 1.65204 20.8681 0 16.5691 0C7.4338 0 0.0896195 7.21654 0.179111 15.9981C0.179111 18.7804 0.985173 21.4758 2.3287 23.9103L0 32.1702L8.68757 29.9965C11.1058 31.3008 13.7925 31.9095 16.4796 31.9095C25.5254 31.9095 32.8696 24.6928 32.8696 15.9114C32.8696 11.6509 31.1678 7.65129 28.1228 4.6951H28.1227ZM16.5691 29.2141C14.1509 29.2141 11.7327 28.6056 9.67274 27.3884L9.13541 27.1275L3.94082 28.4316L5.28421 23.4758L4.92599 22.954C0.985173 16.7809 2.86603 8.60769 9.31452 4.78198C15.763 0.956396 24.0924 2.78231 28.0332 9.04245C31.9739 15.3026 30.093 23.3886 23.6447 27.2144C21.5846 28.5185 19.0769 29.214 16.5691 29.214V29.2141ZM24.4506 19.5632L23.4654 19.1284C23.4654 19.1284 22.0325 18.5198 21.1369 18.085C21.0472 18.085 20.9577 17.998 20.8681 17.998C20.5994 17.998 20.4203 18.085 20.2412 18.172C20.2412 18.172 20.1517 18.2589 18.8978 19.6501C18.8082 19.8239 18.629 19.9109 18.4499 19.9109H18.3603C18.2708 19.9109 18.0917 19.8239 18.0021 19.7371L17.5543 19.5632C16.5691 19.1284 15.6735 18.6067 14.957 17.9111C14.7778 17.7373 14.5091 17.5634 14.33 17.3895C13.7031 16.7809 13.0761 16.0852 12.6284 15.3027L12.5388 15.1288C12.4493 15.0418 12.4493 14.955 12.3597 14.7811C12.3597 14.6072 12.3597 14.4333 12.4493 14.3463C12.4493 14.3463 12.8075 13.9116 13.0761 13.6508C13.2553 13.4768 13.3448 13.216 13.5239 13.0422C13.7031 12.7813 13.7927 12.4335 13.7031 12.1726C13.6136 11.7379 12.5388 9.39033 12.2702 8.8687C12.0909 8.60781 11.9119 8.52094 11.6432 8.43394H10.658C10.4788 8.43394 10.2998 8.52094 10.1206 8.52094L10.031 8.60781C9.85186 8.69482 9.67274 8.8687 9.49363 8.95557C9.31452 9.12958 9.2249 9.30333 9.04579 9.47733C8.41884 10.2599 8.06062 11.2162 8.06062 12.1726C8.06062 12.8682 8.23973 13.5638 8.50846 14.1724L8.59808 14.4333C9.40414 16.0852 10.4788 17.5634 11.9119 18.8675L12.2702 19.2153C12.5388 19.4762 12.8075 19.6501 12.9866 19.9108C14.8675 21.476 17.0169 22.6062 19.4351 23.2149C19.7038 23.3018 20.0621 23.3018 20.3308 23.3888H21.2263C21.6742 23.3888 22.2115 23.2149 22.5699 23.041C22.8385 22.8671 23.0176 22.8671 23.1967 22.6933L23.3759 22.5192C23.555 22.3454 23.7341 22.2585 23.9133 22.0846C24.0924 21.9107 24.2715 21.7369 24.3611 21.5629C24.5402 21.2151 24.6297 20.7803 24.7193 20.3457V19.7371C24.7193 19.7371 24.6297 19.6501 24.4506 19.5632Z" fill="white"/>
</svg>
